          <svg xmlns="http://www.w3.org/2000/svg" viewBox="0 0 1366 768">
            <path d="M0 0h1366v768H0z" />
            <linearGradient id="a" x1="1173.6005" x2="384.7298" y1="1138.2117" y2="91.4406"
              gradientUnits="userSpaceOnUse">
              <stop offset="0" stop-color="#460eff" />
              <stop offset="1" stop-color="#ff92ea" />
            </linearGradient>
            <path class="waving-1" fill="url(#a)"
              d="M951 377c-124.4 19.2-144.3 134.4-269 182-67.3 25.7-172.2 34.3-334-47-30.7-14.3-100.4-41.7-189-31-11.7 1.4-161.4 22.1-248 156-10.2 15.8-97.4 154.5-40 253 21.8 37.3 57.4 54.1 76.2 64.7C63.6 1020.1 235.8 985.3 720 997c598 14.5 708.3 40.3 811-60 175.6-171.4 207.6-508.8 56-728-27.5-39.7-96.8-152.5-165-141-105.7 17.9-85.7 311.6-229 357-85 26.9-125.1-66-242-48z"
              opacity=".7" />
            <linearGradient id="b" x1="1235.8918" x2="394.815" y1="1149.9866" y2="33.942"
              gradientUnits="userSpaceOnUse">
              <stop offset="0" stop-color="#460eff" />
              <stop offset="1" stop-color="#ff92ea" />
            </linearGradient>
            <path class="waving-2" fill="url(#b)"
              d="M-3 514c111.1-40 187.1 131 354 156 123.6 18.5 128.7-72.3 349-95 121-12.5 152.3 10.6 240-21 31.2-11.2 141.1-50.8 203-154 72.6-121 5.8-207.5 79-302 45.9-59.3 133.5-104.3 201-92 214.9 39.3 416.6 695.9 191 931-115 119.8-236.8 23.5-852 33-496.3 7.6-713.1 78.5-813-60-61.7-85.6-87.1-262.5-8-354 10.7-12.4 27.4-31.7 56-42z"
              opacity=".5" />
            <linearGradient id="c" x1="1278.0773" x2="543.2971" y1="1068.5638" y2="93.5667"
              gradientUnits="userSpaceOnUse">
              <stop offset="0" stop-color="#460eff" />
              <stop offset="1" stop-color="#ff92ea" />
            </linearGradient>
            <path class="waving-3" fill="url(#c)"
              d="M-21 671c39.1-32.5 92.5 5.3 204 21 183.5 25.8 212-52.5 429-55 208-2.4 276.6 68.5 339 13 77-68.5 1.5-202.4 93-286 63.5-58 121.3-13.2 184-68 103.7-90.7 0-278.4 92-340 91.1-60.9 250.7-10 343 72 207.1 184.1 190.6 627.7-24 832-70.8 67.4-143 89.6-589 129-876.8 77.5-1004.1 18.6-1061-69-52-80-59.8-207.5-10-249z" />
          </svg>
