<svg width="312" height="113" fill="none" xmlns="http://www.w3.org/2000/svg"><path d="M42.83 60.19a26.1494 26.1494 0 0010-9.08 22.8901 22.8901 0 003.81-12.73 25.679 25.679 0 00-7.5213-18.2687A25.6795 25.6795 0 0030.85 12.59H.81v75.22H18V63.09h8.16l14.19 24.72h18.48l-16-27.62zM37 45.25a7.88 7.88 0 01-6.07 2.8H18V28.71h12.9A7.9008 7.9008 0 0137 31.5a10.61 10.61 0 010 13.75zM109.67 40.79a28.9401 28.9401 0 00-40.41 0 28.6798 28.6798 0 000 40.3 28.54 28.54 0 0039.993-.3076 28.5379 28.5379 0 008.386-19.911A28.5445 28.5445 0 00109.67 40.79zM98.28 70.08a12.7499 12.7499 0 01-17.63 0 13.56 13.56 0 010-18.27 12.72 12.72 0 0117.63 0 13.559 13.559 0 010 18.27zM166.51 34.08v5.48c-3.733-4.6667-8.963-7-15.69-7a24.902 24.902 0 00-10.291 1.9705 24.8924 24.8924 0 00-8.569 6.0295 28.3582 28.3582 0 00-7.571 19.29 28.3582 28.3582 0 007.571 19.29 24.9373 24.9373 0 008.57 6.0268 24.932 24.932 0 0010.29 1.9732c6.733 0 11.963-2.3333 15.69-7v4.94c0 3.72-1.073 6.5667-3.22 8.54-2.15 2-5.13 3-8.92 3-5.74 0-9.823-2.2567-12.25-6.77l-13.76 7.95c4.867 8.667 13.357 13 25.47 13 7.88 0 14.577-2.167 20.09-6.5 5.513-4.3333 8.273-10.7267 8.28-19.18v-51l-15.69-.04zm-3.65 34.81a14.4308 14.4308 0 01-9.35 3.439c-3.426 0-6.74-1.219-9.35-3.439a13.0017 13.0017 0 01-3.619-9c0-3.3546 1.297-6.5793 3.619-9 2.61-2.22 5.924-3.439 9.35-3.439 3.426 0 6.74 1.219 9.35 3.439a13.0017 13.0017 0 013.619 9c0 3.3546-1.297 6.5793-3.619 9zM208.9 12.86a9.5905 9.5905 0 00-5.851-2.7266 9.5877 9.5877 0 00-6.253 1.5994 9.5864 9.5864 0 00-3.824 5.2009 9.5883 9.5883 0 00.34 6.446 9.5897 9.5897 0 0016.267 2.3792 9.595 9.595 0 002.171-6.0789 9.3087 9.3087 0 00-.718-3.7053A9.3124 9.3124 0 00208.9 12.86zM194 34.08v53.73h16.12V34.08H194z" fill="#181920"/><path d="M234.19 79.74a40.042 40.042 0 00.47 6.33 28.9994 28.9994 0 003.6 10.43 26.0928 26.0928 0 0010.87 10.28 33.3586 33.3586 0 0015.06 3.39V91.68a17.8321 17.8321 0 01-7.14-1.33 10.4802 10.4802 0 01-4.8-3.94 8.1729 8.1729 0 01-.52-.9 10.9941 10.9941 0 01-1.19-5.12 11.4456 11.4456 0 01.81-4.48c.12-.29.25-.58.38-.84a8.99 8.99 0 011.75-2.36 8.7836 8.7836 0 013-1.91 9.6393 9.6393 0 013.42-.65 14.159 14.159 0 015.59 1.12 22.0011 22.0011 0 015.28 3.31c1.77 1.46 3.77 3.18 6 5.16L311.19 113V37.57l-77-37.18v79.35zm61.12-30.54h-.12v30.49l-15.9-17.75a37.8107 37.8107 0 00-9.42-7.95 21.9283 21.9283 0 00-11.38-3.05 21.1389 21.1389 0 00-7.3 1.33V27l44.12 22.2z" fill="#6A99FF"/></svg>